<mxfile host="app.diagrams.net" modified="2024-04-28T03:01:22.633Z" agent="Mozilla/5.0 (Macintosh; Intel Mac OS X 10_15_7) AppleWebKit/537.36 (KHTML, like Gecko) Chrome/124.0.0.0 Safari/537.36" etag="SZFeaqWaYLCnOzo-7G4m" version="24.3.1" type="device">
  <diagram name="第 1 页" id="aKCPz2nOF21Oyg6bD14g">
    <mxGraphModel dx="1247" dy="662" grid="1" gridSize="10" guides="1" tooltips="1" connect="1" arrows="1" fold="1" page="1" pageScale="1" pageWidth="827" pageHeight="1169" math="0" shadow="0">
      <root>
        <mxCell id="0" />
        <mxCell id="1" parent="0" />
        <mxCell id="jgYby-Ivb92ifQDyOR8x-1" value="&lt;font style=&quot;font-size: 14px;&quot;&gt;fec_index&lt;/font&gt;&lt;div&gt;&lt;font style=&quot;font-size: 14px;&quot;&gt;uint16&lt;/font&gt;&lt;/div&gt;" style="rounded=0;whiteSpace=wrap;html=1;fillColor=#60a917;fontColor=#ffffff;strokeColor=#2D7600;" vertex="1" parent="1">
          <mxGeometry x="270" y="160" width="110" height="40" as="geometry" />
        </mxCell>
        <mxCell id="jgYby-Ivb92ifQDyOR8x-2" value="&lt;font style=&quot;font-size: 14px;&quot;&gt;len&lt;/font&gt;" style="rounded=0;whiteSpace=wrap;html=1;fillColor=#6a00ff;fontColor=#ffffff;strokeColor=#3700CC;" vertex="1" parent="1">
          <mxGeometry x="270" y="200" width="110" height="40" as="geometry" />
        </mxCell>
        <mxCell id="jgYby-Ivb92ifQDyOR8x-3" value="&lt;font style=&quot;font-size: 14px;&quot;&gt;data&lt;/font&gt;" style="rounded=0;whiteSpace=wrap;html=1;fillColor=#0050ef;fontColor=#ffffff;strokeColor=#001DBC;" vertex="1" parent="1">
          <mxGeometry x="270" y="240" width="110" height="170" as="geometry" />
        </mxCell>
        <mxCell id="jgYby-Ivb92ifQDyOR8x-4" value="&lt;font style=&quot;font-size: 14px;&quot;&gt;fec_index&lt;/font&gt;" style="rounded=0;whiteSpace=wrap;html=1;fillColor=#60a917;fontColor=#ffffff;strokeColor=#2D7600;" vertex="1" parent="1">
          <mxGeometry x="420" y="160" width="110" height="40" as="geometry" />
        </mxCell>
        <mxCell id="jgYby-Ivb92ifQDyOR8x-5" value="&lt;font style=&quot;font-size: 14px;&quot;&gt;len&lt;/font&gt;" style="rounded=0;whiteSpace=wrap;html=1;fillColor=#0050ef;fontColor=#ffffff;strokeColor=#001DBC;" vertex="1" parent="1">
          <mxGeometry x="420" y="200" width="110" height="40" as="geometry" />
        </mxCell>
        <mxCell id="jgYby-Ivb92ifQDyOR8x-6" value="&lt;font style=&quot;font-size: 14px;&quot;&gt;data&lt;/font&gt;" style="rounded=0;whiteSpace=wrap;html=1;fillColor=#0050ef;fontColor=#ffffff;strokeColor=#001DBC;" vertex="1" parent="1">
          <mxGeometry x="420" y="240" width="110" height="170" as="geometry" />
        </mxCell>
        <mxCell id="jgYby-Ivb92ifQDyOR8x-7" value="" style="shape=curlyBracket;whiteSpace=wrap;html=1;rounded=1;flipH=1;labelPosition=right;verticalLabelPosition=middle;align=left;verticalAlign=middle;" vertex="1" parent="1">
          <mxGeometry x="570" y="200" width="20" height="210" as="geometry" />
        </mxCell>
        <mxCell id="jgYby-Ivb92ifQDyOR8x-9" value="encode_region" style="text;html=1;align=center;verticalAlign=middle;resizable=0;points=[];autosize=1;strokeColor=none;fillColor=none;" vertex="1" parent="1">
          <mxGeometry x="600" y="290" width="100" height="30" as="geometry" />
        </mxCell>
        <mxCell id="jgYby-Ivb92ifQDyOR8x-11" value="" style="shape=curlyBracket;whiteSpace=wrap;html=1;rounded=1;labelPosition=left;verticalLabelPosition=middle;align=right;verticalAlign=middle;" vertex="1" parent="1">
          <mxGeometry x="210" y="240" width="20" height="170" as="geometry" />
        </mxCell>
        <mxCell id="jgYby-Ivb92ifQDyOR8x-12" value="encode_region" style="text;html=1;align=center;verticalAlign=middle;resizable=0;points=[];autosize=1;strokeColor=none;fillColor=none;" vertex="1" parent="1">
          <mxGeometry x="110" y="310" width="100" height="30" as="geometry" />
        </mxCell>
      </root>
    </mxGraphModel>
  </diagram>
</mxfile>
